<svg xmlns="http://www.w3.org/2000/svg" version="1.1" xmlns:xlink="http://www.w3.org/1999/xlink" width="1500" height="137" viewBox="0 0 1500 137"><svg xml:space="preserve" width="1500" height="137" data-version="2" data-id="lg_9h81yEsWSV55f0v8Uv" viewBox="0 0 569 137" x="0" y="0"><rect width="100%" height="100%" fill="transparent"></rect><rect width="201.73" height="201.73" x="-100.86" y="-100.86" fill="#af47e8" rx="13" ry="13" transform="translate(72.26 68.5)scale(.6633)"></rect><path fill="#76309b" d="M182.815 66.94q-4.29 0-8.08-1.31-3.78-1.3-6.6-3.65-2.81-2.34-4.15-5.49-.67-1.27-.03-2.35.63-1.07 2.11-1.4 1.14-.27 2.21.3 1.07.57 1.61 1.71.87 1.81 2.74 3.25 1.88 1.44 4.53 2.31 2.64.87 5.66.87 3.35 0 6.06-1.07 2.71-1.07 4.36-3.12 1.64-2.04 1.64-4.99 0-3.75-2.88-6.63t-9.25-3.62q-8.11-.87-12.73-4.89-4.62-4.02-4.62-9.92 0-4.29 2.34-7.33 2.35-3.05 6.43-4.66 4.09-1.61 9.25-1.61 3.89 0 6.94 1.14 3.04 1.14 5.29 3.12 2.24 1.97 3.85 4.52.8 1.34.64 2.51-.17 1.17-1.24 1.84-1.21.67-2.51.27-1.31-.4-1.98-1.54-1.01-1.81-2.55-3.15-1.54-1.34-3.65-2.14-2.11-.81-4.99-.81-5.09-.06-8.38 1.98-3.28 2.04-3.28 6.13 0 2.14 1.11 3.99 1.1 1.84 3.88 3.21 2.78 1.38 7.81 1.98 8.11.94 12.39 4.92 4.29 3.99 4.29 10.49 0 3.75-1.44 6.57-1.44 2.81-3.99 4.72-2.54 1.91-5.86 2.88-3.31.97-6.93.97" paint-order="stroke"></path><rect width="37.56" height="53.6" x="-18.78" y="-26.8" fill="none" rx="0" ry="0" transform="translate(182.76 40.64)"></rect><path fill="#76309b" d="M214.975 66.27q-1.34 0-2.25-.9-.9-.91-.9-2.25V17.09q0-1.34.9-2.24.91-.91 2.25-.91h13.4q5.02 0 8.88 2.22 3.85 2.21 5.99 6.06 2.15 3.85 2.15 8.94 0 4.89-2.15 8.71-2.14 3.82-5.99 5.97-3.86 2.14-8.88 2.14h-10.25v15.14q0 1.34-.87 2.25-.88.9-2.28.9m3.15-24.19h10.25q3.21 0 5.69-1.4 2.48-1.41 3.89-3.89 1.41-2.48 1.41-5.63 0-3.35-1.41-5.89-1.41-2.55-3.89-3.99-2.48-1.44-5.69-1.44h-10.25Z" paint-order="stroke"></path><rect width="33.57" height="52.33" x="-16.79" y="-26.16" fill="none" rx="0" ry="0" transform="translate(229.11 40.6)"></rect><path fill="#76309b" d="M256.445 66.27q-1.34 0-2.24-.9-.91-.91-.91-2.25V17.09q0-1.4.91-2.27.9-.88 2.24-.88h30.75q1.34 0 2.21.84.88.84.88 2.18 0 1.21-.88 2.04-.87.84-2.21.84h-27.6v17.15h19.9q1.41 0 2.24.84.84.84.84 2.11t-.84 2.11q-.83.84-2.24.84h-19.9v17.49h27.6q1.34 0 2.21.83.88.84.88 2.05 0 1.34-.88 2.17-.87.84-2.21.84Z" paint-order="stroke"></path><rect width="36.99" height="52.33" x="-18.5" y="-26.16" fill="none" rx="0" ry="0" transform="translate(272.29 40.6)"></rect><path fill="#76309b" d="M303.075 66.27q-1.34 0-2.21-.9-.87-.91-.87-2.25V17.09q0-1.4.87-2.27.87-.88 2.21-.88 1.48 0 2.48 1.14l30.29 40.14V17.09q0-1.4.9-2.27.9-.88 2.24-.88 1.34 0 2.22.88.87.87.87 2.27v46.03q0 1.34-.87 2.25-.88.9-2.22.9-.67 0-1.34-.27-.67-.26-1.07-.8l-30.35-40.13v38.05q0 1.34-.87 2.25-.87.9-2.28.9" paint-order="stroke"></path><rect width="42.08" height="52.33" x="-21.04" y="-26.16" fill="none" rx="0" ry="0" transform="translate(321.54 40.6)"></rect><path fill="#76309b" d="M358.625 66.27q-1.34 0-2.25-.9-.9-.91-.9-2.25V17.09q0-1.4.9-2.27.91-.88 2.25-.88h12.12q5.76 0 10.49 1.91 4.72 1.91 8.21 5.43 3.48 3.52 5.39 8.28 1.91 4.75 1.91 10.51 0 5.77-1.91 10.56-1.91 4.79-5.39 8.3-3.49 3.52-8.21 5.43-4.73 1.91-10.49 1.91Zm3.14-5.63h8.98q5.83 0 10.29-2.64 4.45-2.65 7.03-7.31 2.58-4.65 2.58-10.62 0-6.03-2.58-10.65t-7.03-7.23q-4.46-2.62-10.29-2.62h-8.98Z" paint-order="stroke"></path><rect width="41.27" height="52.33" x="-20.64" y="-26.16" fill="none" rx="0" ry="0" transform="translate(376.61 40.6)"></rect><path fill="#76309b" d="M420.325 66.27q-1.27 0-2.17-.9-.91-.91-.91-2.25V47.04l-18.02-28.2q-.81-1.21-.61-2.35.21-1.14 1.04-1.84.84-.71 2.05-.71 1 0 1.6.44.61.44 1.14 1.24l17.42 27.8h-2.74l17.55-27.93q.54-.74 1.21-1.14.67-.41 1.6-.41 1.14 0 1.88.77.74.78.87 1.88.14 1.11-.6 2.25l-18.16 28.2v16.08q0 1.34-.9 2.25-.91.9-2.25.9" paint-order="stroke"></path><rect width="43.8" height="52.33" x="-21.9" y="-26.16" fill="none" rx="0" ry="0" transform="translate(420.9 40.6)"></rect><path fill="#76309b" d="M170.235 113.4q-1.98 0-3.67-.57-1.69-.58-2.93-1.63-1.24-1.06-1.89-2.45-.25-.5-.02-.92.24-.41.79-.57.44-.12.86.09.41.22.63.65.47.9 1.37 1.62.89.71 2.13 1.1 1.24.38 2.73.38 1.65 0 2.92-.54t2-1.58q.72-1.04.72-2.53 0-1.89-1.39-3.25-1.4-1.36-4.37-1.74-3.63-.43-5.67-2.24-2.05-1.82-2.05-4.45 0-1.89 1.01-3.29 1-1.39 2.77-2.15t4.06-.76q1.71 0 3.1.54 1.4.54 2.44 1.43 1.03.88 1.69 1.93.31.5.2.96-.11.47-.55.72-.46.21-.94.06-.48-.16-.73-.59-.46-.71-1.16-1.35-.7-.63-1.69-1.01-.99-.37-2.39-.4-2.45 0-3.94 1.04-1.48 1.04-1.48 3.02 0 1.06.55 1.94.56.88 1.85 1.52 1.29.63 3.46.94 3.87.56 5.75 2.38 1.87 1.81 1.87 4.72 0 1.68-.6 2.98-.61 1.3-1.71 2.19-1.1.88-2.57 1.34-1.47.47-3.15.47" paint-order="stroke"></path><rect width="16.71" height="24.83" x="-8.36" y="-12.41" fill="none" rx="0" ry="0" transform="translate(170.41 101.48)"></rect><path fill="#76309b" d="M184.215 120.34q-.55 0-.88-.32-.33-.33-.33-.89V104.5q.04-2.42 1.17-4.35 1.13-1.94 3.07-3.06 1.93-1.11 4.35-1.11 2.48 0 4.43 1.13 1.96 1.13 3.09 3.08 1.13 1.96 1.13 4.44 0 2.44-1.1 4.4-1.1 1.95-2.99 3.08-1.89 1.13-4.28 1.13-2.08 0-3.77-.88t-2.71-2.34v9.11q0 .56-.32.89-.33.32-.86.32m7.38-9.27q1.8 0 3.23-.83 1.42-.84 2.24-2.31.82-1.48.82-3.3 0-1.86-.82-3.32-.82-1.46-2.24-2.31-1.43-.85-3.23-.85-1.77 0-3.19.85-1.43.85-2.23 2.31-.81 1.46-.81 3.32 0 1.82.81 3.3.8 1.47 2.23 2.31 1.42.83 3.19.83" paint-order="stroke"></path><rect width="17.24" height="24.36" x="-8.62" y="-12.18" fill="none" rx="0" ry="0" transform="translate(192.13 108.66)"></rect><path fill="#76309b" d="M212.615 113.24q-2.51 0-4.45-1.1-1.94-1.1-3.04-3.05-1.1-1.95-1.1-4.46 0-2.55 1.04-4.48 1.04-1.94 2.87-3.06 1.83-1.11 4.21-1.11 2.36 0 4.11 1.07 1.75 1.07 2.71 2.96.97 1.89.97 4.31 0 .49-.31.79-.31.29-.81.29h-13.18v-1.98h13.43l-1.34.96q.04-1.8-.65-3.23-.68-1.42-1.93-2.23-1.26-.8-3-.8-1.76 0-3.1.83-1.33.84-2.06 2.31-.73 1.47-.73 3.37 0 1.89.83 3.34.82 1.46 2.24 2.3 1.43.83 3.29.83 1.12 0 2.25-.38 1.13-.39 1.81-.98.34-.28.78-.29.43-.02.74.23.4.37.42.8.01.44-.36.75-1.02.87-2.6 1.44t-3.04.57" paint-order="stroke"></path><rect width="15.91" height="17.26" x="-7.96" y="-8.63" fill="none" rx="0" ry="0" transform="translate(212.48 105.11)"></rect><path fill="#76309b" d="M238.495 113.09q-.52 0-.86-.34-.34-.34-.34-.84v-8.06q0-1.92-.73-3.16-.73-1.24-1.99-1.86-1.25-.62-2.83-.62-1.52 0-2.75.59-1.22.59-1.93 1.61-.72 1.02-.72 2.32h-1.7q.06-1.95 1.05-3.48.99-1.54 2.64-2.42 1.64-.88 3.65-.88 2.21 0 3.94.91 1.74.91 2.75 2.68 1 1.77 1 4.31v8.06q0 .5-.34.84-.34.34-.84.34m-13.33 0q-.55 0-.88-.33-.32-.32-.32-.85V97.34q0-.56.32-.88.33-.33.88-.33.53 0 .86.33.32.32.32.88v14.57q0 .53-.32.85-.33.33-.86.33" paint-order="stroke"></path><rect width="15.71" height="17.14" x="-7.86" y="-8.57" fill="none" rx="0" ry="0" transform="translate(232.32 105.02)"></rect><path fill="#76309b" d="M252.665 113.24q-2.45 0-4.4-1.13-1.95-1.13-3.08-3.08-1.14-1.96-1.14-4.44 0-2.44 1.1-4.4 1.1-1.95 3-3.08 1.89-1.13 4.27-1.13 2.08 0 3.75.88 1.68.88 2.7 2.34v-9.11q0-.56.34-.89.34-.32.87-.32t.87.32q.34.33.34.89v14.63q-.06 2.42-1.19 4.35-1.14 1.94-3.07 3.06-1.94 1.11-4.36 1.11m0-2.17q1.8 0 3.21-.85t2.23-2.31q.82-1.46.82-3.32 0-1.82-.82-3.3-.82-1.47-2.23-2.31-1.41-.83-3.21-.83-1.77 0-3.19.83-1.43.84-2.26 2.31-.84 1.48-.84 3.3 0 1.86.84 3.32.83 1.46 2.26 2.31 1.42.85 3.19.85" paint-order="stroke"></path><rect width="17.24" height="24.36" x="-8.62" y="-12.18" fill="none" rx="0" ry="0" transform="translate(253.16 101.56)"></rect><path fill="#76309b" d="M281.435 113.09q-.43 0-.76-.28t-.45-.71l-6.35-21.49q-.22-.74.07-1.24.3-.49.95-.49.37 0 .7.2.32.2.48.73l5.73 19.96h-.71l5.42-19.44q.1-.34.42-.55.33-.22.73-.22.37 0 .71.2.34.2.44.61l5.45 19.4h-.71l5.77-20.09q.21-.8 1.17-.8.66 0 .9.51.25.51.07 1.22l-6.33 21.46q-.15.49-.48.76-.32.26-.76.26-.43 0-.76-.28-.32-.28-.45-.71l-5.39-19.69h.74l-5.36 19.66q-.16.46-.48.74-.33.28-.76.28" paint-order="stroke"></path><rect width="27.87" height="24.21" x="-13.94" y="-12.11" fill="none" rx="0" ry="0" transform="translate(288.15 101.48)"></rect><path fill="#76309b" d="M306.735 113.09q-.56 0-.89-.33-.32-.32-.32-.88V97.34q0-.56.32-.88.33-.33.89-.33.52 0 .85.33.32.32.32.88v14.54q0 .56-.32.88-.33.33-.85.33m-.04-20.18q-.68 0-1.17-.5-.5-.49-.5-1.21 0-.77.51-1.22.51-.45 1.2-.45.65 0 1.16.45.51.45.51 1.22 0 .72-.5 1.21-.49.5-1.21.5" paint-order="stroke"></path><rect width="3.38" height="23.56" x="-1.69" y="-11.78" fill="none" rx="0" ry="0" transform="translate(307.21 101.81)"></rect><path fill="#76309b" d="M319.905 113.24q-1.83 0-3.63-.62-1.79-.62-2.91-1.86-.34-.37-.28-.83.06-.47.47-.81.43-.31.89-.25.47.06.78.41.74.86 1.97 1.33 1.22.46 2.71.46 2.29 0 3.32-.79 1.02-.79 1.05-1.9 0-1.12-1.05-1.85-1.06-.73-3.47-1.13-3.14-.5-4.59-1.74-1.46-1.24-1.46-2.94 0-1.58.84-2.64.83-1.05 2.23-1.58 1.39-.52 3.07-.52 2.08 0 3.58.71t2.43 1.92q.31.4.25.84-.06.43-.5.71-.37.22-.85.14-.48-.08-.82-.45-.77-.9-1.8-1.32-1.02-.41-2.35-.41-1.71 0-2.73.69-1.02.7-1.02 1.75 0 .72.38 1.24.39.53 1.34.93.94.41 2.65.69 2.32.37 3.67 1.1 1.35.73 1.92 1.7.58.98.58 2.13 0 1.45-.86 2.55-.85 1.1-2.35 1.72-1.51.62-3.46.62" paint-order="stroke"></path><rect width="13.52" height="17.26" x="-6.76" y="-8.63" fill="none" rx="0" ry="0" transform="translate(320.31 105.11)"></rect><path fill="#76309b" d="M338.385 113.24q-2.51 0-4.45-1.1-1.94-1.1-3.04-3.05-1.1-1.95-1.1-4.46 0-2.55 1.04-4.48 1.04-1.94 2.87-3.06 1.82-1.11 4.21-1.11 2.36 0 4.11 1.07 1.75 1.07 2.71 2.96t.96 4.31q0 .49-.31.79-.31.29-.8.29h-13.18v-1.98h13.42l-1.33.96q.03-1.8-.65-3.23-.68-1.42-1.94-2.23-1.25-.8-2.99-.8-1.77 0-3.1.83-1.33.84-2.06 2.31-.73 1.47-.73 3.37 0 1.89.82 3.34.82 1.46 2.25 2.3 1.43.83 3.29.83 1.11 0 2.24-.38 1.14-.39 1.82-.98.34-.28.77-.29.44-.02.75.23.4.37.42.8.01.44-.36.75-1.02.87-2.61 1.44-1.58.57-3.03.57" paint-order="stroke"></path><rect width="15.9" height="17.26" x="-7.95" y="-8.63" fill="none" rx="0" ry="0" transform="translate(338.25 105.11)"></rect><path fill="#76309b" d="M353.385 113.09q-1.24 0-2.22-.68-.97-.69-1.51-1.89-.55-1.21-.55-2.79V90.06q0-.53.33-.86.32-.32.85-.32t.85.32q.33.33.33.86v17.67q0 1.33.54 2.17.54.83 1.38.83h.78q.46 0 .74.33.28.32.28.85t-.39.85q-.39.33-1.01.33Z" paint-order="stroke"></path><rect width="6.08" height="24.21" x="-3.04" y="-12.11" fill="none" rx="0" ry="0" transform="translate(352.64 101.48)"></rect><path fill="#76309b" d="M361.385 120.47q-.25 0-.56-.13-1.05-.46-.59-1.49l10.01-22.07q.47-.99 1.49-.56 1.06.44.59 1.46l-10.04 22.07q-.31.72-.9.72m3.44-7.91q-.47.22-.87.08t-.65-.61l-6.91-14.32q-.22-.46-.06-.87.15-.4.62-.62.46-.21.86-.07.41.14.62.6l6.79 14.32q.25.47.16.87-.1.4-.56.62" paint-order="stroke"></path><rect width="16.4" height="24.52" x="-8.2" y="-12.26" fill="none" rx="0" ry="0" transform="translate(364.92 108.7)"></rect><path fill="#76309b" d="M375.175 118.11q-.31 0-.48-.17-.17-.17-.17-.45 0-.46.28-.85.28-.39.58-.82.29-.44.29-1.06 0-.56-.22-.93-.21-.37-.51-.66-.29-.3-.51-.65-.22-.36-.22-.89 0-.77.51-1.24.52-.46 1.29-.46.93 0 1.52.73.59.72.59 2.03 0 .86-.25 1.82-.25.97-.68 1.79-.44.82-.96 1.31-.53.5-1.06.5" paint-order="stroke"></path><rect width="3.91" height="8.18" x="-1.96" y="-4.09" fill="none" rx="0" ry="0" transform="translate(376.67 114.52)"></rect><path fill="#76309b" d="M393.065 113.09q-.5 0-.85-.34-.36-.34-.36-.87V90.09q0-.5.36-.86.35-.35.85-.35t.85.35q.36.36.36.86v20.7h12.12q.5 0 .85.33.36.33.36.82 0 .5-.36.82-.35.33-.85.33Z" paint-order="stroke"></path><rect width="15.75" height="24.21" x="-7.88" y="-12.11" fill="none" rx="0" ry="0" transform="translate(400.23 101.48)"></rect><path fill="#76309b" d="M412.875 113.09q-.56 0-.88-.33-.33-.32-.33-.88V97.34q0-.56.33-.88.32-.33.88-.33.53 0 .85.33.33.32.33.88v14.54q0 .56-.33.88-.32.33-.85.33m-.03-20.18q-.68 0-1.18-.5-.5-.49-.5-1.21 0-.77.52-1.22.51-.45 1.19-.45.65 0 1.16.45.51.45.51 1.22 0 .72-.49 1.21-.5.5-1.21.5" paint-order="stroke"></path><rect width="3.38" height="23.56" x="-1.69" y="-11.78" fill="none" rx="0" ry="0" transform="translate(413.36 101.81)"></rect><path fill="#76309b" d="M425.925 113.09q-.74 0-1.12-.81l-6.88-14.6q-.18-.4-.03-.8.16-.41.62-.62.44-.22.84-.07.4.16.62.56l6.6 14.29h-1.27l6.51-14.29q.19-.43.64-.57.45-.14.88.04.43.22.59.64.15.42-.03.79l-6.79 14.63q-.37.81-1.18.81" paint-order="stroke"></path><rect width="16.25" height="17.01" x="-8.12" y="-8.51" fill="none" rx="0" ry="0" transform="translate(426.41 105.08)"></rect><path fill="#76309b" d="M444.335 113.24q-2.51 0-4.44-1.1-1.94-1.1-3.04-3.05-1.1-1.95-1.1-4.46 0-2.55 1.04-4.48 1.03-1.94 2.86-3.06 1.83-1.11 4.22-1.11 2.36 0 4.11 1.07 1.75 1.07 2.71 2.96t.96 4.31q0 .49-.31.79-.31.29-.81.29h-13.17v-1.98h13.42l-1.33.96q.03-1.8-.65-3.23-.68-1.42-1.94-2.23-1.25-.8-2.99-.8-1.77 0-3.1.83-1.33.84-2.06 2.31-.73 1.47-.73 3.37 0 1.89.82 3.34.82 1.46 2.25 2.3 1.42.83 3.28.83 1.12 0 2.25-.38 1.13-.39 1.82-.98.34-.28.77-.29.43-.02.74.23.41.37.42.8.02.44-.35.75-1.03.87-2.61 1.44-1.58.57-3.04.57" paint-order="stroke"></path><rect width="15.9" height="17.26" x="-7.95" y="-8.63" fill="none" rx="0" ry="0" transform="translate(444.2 105.11)"></rect><path fill="#76309b" d="M464.365 113.09q-.5 0-.85-.36-.36-.35-.36-.85V90.09q0-.53.34-.87.34-.34.87-.34h14.54q.53 0 .87.32.34.33.34.86 0 .46-.34.8t-.87.34h-13.33v8.56h9.7q.53 0 .87.34.34.34.34.84 0 .49-.34.83-.34.34-.87.34h-9.7v9.77q0 .5-.34.85-.34.36-.87.36" paint-order="stroke"></path><rect width="16.96" height="24.21" x="-8.48" y="-12.11" fill="none" rx="0" ry="0" transform="translate(472.13 101.48)"></rect><path fill="#76309b" d="M485.135 102.64q.09-1.92 1.01-3.44.91-1.52 2.39-2.39 1.47-.86 3.27-.86 1.42 0 2.2.4.77.4.59 1.18-.13.46-.42.62-.3.15-.72.12-.41-.03-.94-.06-1.74-.16-3.09.36-1.34.51-2.13 1.56-.8 1.05-.8 2.51Zm.19 10.45q-.56 0-.87-.31-.31-.31-.31-.87v-14.6q0-.56.31-.87.31-.31.87-.31.55 0 .86.31.31.31.31.87v14.6q0 .56-.31.87-.31.31-.86.31" paint-order="stroke"></path><rect width="10.55" height="17.14" x="-5.27" y="-8.57" fill="none" rx="0" ry="0" transform="translate(489.92 105.02)"></rect><path fill="#76309b" d="M504.785 113.24q-2.51 0-4.44-1.1-1.94-1.1-3.04-3.05-1.1-1.95-1.1-4.46 0-2.55 1.04-4.48 1.03-1.94 2.86-3.06 1.83-1.11 4.22-1.11 2.36 0 4.11 1.07 1.75 1.07 2.71 2.96t.96 4.31q0 .49-.31.79-.31.29-.81.29h-13.17v-1.98h13.42l-1.33.96q.03-1.8-.65-3.23-.68-1.42-1.94-2.23-1.25-.8-2.99-.8-1.77 0-3.1.83-1.33.84-2.06 2.31-.73 1.47-.73 3.37 0 1.89.82 3.34.82 1.46 2.25 2.3 1.42.83 3.28.83 1.12 0 2.25-.38 1.13-.39 1.82-.98.34-.28.77-.29.43-.02.74.23.41.37.42.8.02.44-.35.75-1.03.87-2.61 1.44-1.58.57-3.04.57" paint-order="stroke"></path><rect width="15.9" height="17.26" x="-7.95" y="-8.63" fill="none" rx="0" ry="0" transform="translate(504.65 105.11)"></rect><path fill="#76309b" d="M523.205 113.24q-2.51 0-4.45-1.1-1.94-1.1-3.04-3.05-1.1-1.95-1.1-4.46 0-2.55 1.04-4.48 1.04-1.94 2.87-3.06 1.83-1.11 4.21-1.11 2.36 0 4.11 1.07 1.75 1.07 2.71 2.96t.96 4.31q0 .49-.31.79-.31.29-.8.29h-13.18v-1.98h13.43l-1.34.96q.03-1.8-.65-3.23-.68-1.42-1.93-2.23-1.26-.8-3-.8-1.76 0-3.1.83-1.33.84-2.06 2.31-.73 1.47-.73 3.37 0 1.89.83 3.34.82 1.46 2.24 2.3 1.43.83 3.29.83 1.11 0 2.25-.38 1.13-.39 1.81-.98.34-.28.77-.29.44-.02.75.23.4.37.42.8.01.44-.36.75-1.02.87-2.6 1.44t-3.04.57" paint-order="stroke"></path><rect width="15.9" height="17.26" x="-7.95" y="-8.63" fill="none" rx="0" ry="0" transform="translate(523.07 105.11)"></rect><path fill="#76309b" d="M538.205 113.09q-1.24 0-2.21-.68-.98-.69-1.52-1.89-.55-1.21-.55-2.79V90.06q0-.53.33-.86.33-.32.85-.32.53 0 .86.32.32.33.32.86v17.67q0 1.33.54 2.17.55.83 1.38.83h.78q.46 0 .74.33.28.32.28.85t-.39.85q-.38.33-1 .33Z" paint-order="stroke"></path><rect width="6.08" height="24.21" x="-3.04" y="-12.11" fill="none" rx="0" ry="0" transform="translate(537.47 101.48)"></rect><path fill="#76309b" d="M546.205 120.47q-.25 0-.56-.13-1.05-.46-.59-1.49l10.02-22.07q.46-.99 1.48-.56 1.06.44.59 1.46l-10.04 22.07q-.31.72-.9.72m3.44-7.91q-.46.22-.87.08-.4-.14-.65-.61l-6.91-14.32q-.22-.46-.06-.87.15-.4.62-.62.46-.21.87-.07.4.14.62.6l6.78 14.32q.25.47.16.87t-.56.62" paint-order="stroke"></path><rect width="16.4" height="24.52" x="-8.2" y="-12.26" fill="none" rx="0" ry="0" transform="translate(549.74 108.7)"></rect><path fill="#76309b" d="M560.835 113.58q-.74 0-1.27-.52-.53-.53-.53-1.27 0-.78.55-1.31.54-.52 1.25-.52.75 0 1.27.54.53.54.53 1.29 0 .71-.51 1.25t-1.29.54" paint-order="stroke"></path><rect width="3.6" height="3.62" x="-1.8" y="-1.81" fill="none" rx="0" ry="0" transform="translate(561.34 112.27)"></rect><path fill="#76309b" d="M87.274 93.033q-3.217 3.217-7.035 5.07-3.812 1.86-7.68 2.206-3.86.354-7.226-1.004-1.457-.452-1.782-1.725-.326-1.287.523-2.645.65-1.046 1.88-1.428 1.238-.375 2.483.078 2.015.7 4.504.374 2.475-.325 5.12-1.654 2.63-1.33 4.893-3.592 2.51-2.51 3.733-5.346 1.237-2.836.933-5.6-.297-2.758-2.51-4.972-2.807-2.807-7.135-2.807-4.313 0-9.63 4.215-6.725 5.424-13.202 5.876t-10.897-3.966q-3.21-3.21-3.74-7.248-.53-4.052 1.329-8.316 1.86-4.264 5.727-8.132 2.906-2.906 6.046-4.348 3.14-1.429 6.3-1.62 3.161-.205 6.28.495 1.605.403 2.354 1.407.75 1.004.453 2.305-.403 1.407-1.676 2.086-1.287.68-2.645.326-2.1-.601-4.264-.446-2.156.149-4.348 1.125-2.178.975-4.342 3.14-3.86 3.761-4.787 7.756-.933 3.988 2.129 7.05 1.612 1.612 3.818 2.164 2.206.551 5.325-.502 3.11-1.061 7.325-4.37 6.774-5.375 12.983-5.601 6.194-.226 11.066 4.646 2.814 2.814 3.84 6.003 1.032 3.182.551 6.52-.473 3.344-2.227 6.554-1.76 3.218-4.469 5.926" paint-order="stroke"></path><rect width="39.8" height="56.8" x="-19.9" y="-28.4" fill="none" rx="0" ry="0" transform="rotate(-45 122.32 -44.77)"></rect><path fill="#fff" d="M90.103 90.212q-3.217 3.218-7.035 5.07-3.812 1.86-7.68 2.207-3.86.353-7.226-1.004-1.457-.453-1.782-1.725-.333-1.28.53-2.638.644-1.054 1.88-1.428 1.231-.382 2.483.077 2.008.693 4.49.375 2.489-.325 5.127-1.662 2.63-1.33 4.893-3.592 2.51-2.51 3.74-5.339 1.23-2.842.926-5.607-.297-2.758-2.503-4.964-2.814-2.814-7.135-2.807-4.32-.007-9.637 4.208-6.732 5.43-13.202 5.876-6.477.452-10.897-3.967-3.21-3.21-3.74-7.248Q42.81 62 44.664 57.73q1.86-4.264 5.727-8.132 2.906-2.906 6.046-4.335 3.132-1.435 6.3-1.633 3.161-.205 6.28.495 1.605.403 2.354 1.407.75 1.004.453 2.305-.403 1.407-1.683 2.093-1.28.672-2.63.325-2.115-.6-4.272-.452-2.156.148-4.341 1.131-2.185.969-4.349 3.133-3.86 3.762-4.787 7.757-.933 3.988 2.136 7.057 1.605 1.605 3.811 2.156 2.206.552 5.325-.502 3.104-1.053 7.325-4.37 6.781-5.367 12.975-5.593 6.209-.227 11.074 4.638 2.814 2.814 3.84 6.003 1.032 3.182.558 6.527-.48 3.338-2.234 6.548-1.76 3.217-4.469 5.925" paint-order="stroke"></path><rect width="39.8" height="56.8" x="-19.9" y="-28.4" fill="none" rx="0" ry="0" transform="rotate(-45 120.33 -49.6)"></rect></svg></svg>